<svg width="30" height="30" viewBox="0 0 30 30" fill="none" xmlns="http://www.w3.org/2000/svg">
<path fill-rule="evenodd" clip-rule="evenodd" d="M22.2857 11.1429C22.2857 4.98883 17.2969 0 11.1429 0C4.98883 0 0 4.98883 0 11.1429C0 17.2969 4.98883 22.2857 11.1429 22.2857C13.9029 22.2857 16.44 21.2743 18.3943 19.6114L18.8571 20.0743V21.4286L27.4286 30L30 27.4286L21.4286 18.8571H20.0743L19.6114 18.3943C21.2743 16.44 22.2857 13.9029 22.2857 11.1429ZM3.42859 11.1428C3.42859 6.85704 6.85716 3.42847 11.1429 3.42847C15.4286 3.42847 18.8572 6.85704 18.8572 11.1428C18.8572 15.4285 15.4286 18.857 11.1429 18.857C6.85716 18.857 3.42859 15.4285 3.42859 11.1428Z" fill="#7A869A"/>
</svg>
